<svg width="103" height="66" viewBox="0 0 103 66" fill="none" xmlns="http://www.w3.org/2000/svg">
<path d="M67.8432 22.5933L56.6707 10.4555C57.5202 9.60286 58.0682 8.5579 58.2496 7.44469C58.431 6.33147 58.2383 5.19673 57.6943 4.17515C57.1503 3.15356 56.2778 2.28802 55.1805 1.68125C54.0831 1.07448 52.807 0.751953 51.5034 0.751953C50.1999 0.751953 48.9237 1.07448 47.8263 1.68125C46.729 2.28802 45.8565 3.15356 45.3125 4.17515C44.7685 5.19673 44.5758 6.33147 44.7572 7.44469C44.9387 8.5579 45.4866 9.60286 46.3361 10.4555L35.1636 22.5933C34.6862 23.1143 34.0181 23.4804 33.2683 23.6319C32.5186 23.7834 31.7314 23.7114 31.0353 23.4275L13.9291 16.4715C13.9972 16.1347 14.0313 15.79 14.0313 15.4375C14.0312 14.253 13.6159 13.0962 12.84 12.1188C12.064 11.1415 10.9636 10.3892 9.68305 9.96072C8.40254 9.53224 7.00175 9.44758 5.66445 9.71783C4.32716 9.98808 3.11582 10.6006 2.18935 11.4751C1.26289 12.3496 0.664578 13.4451 0.472911 14.6181C0.281243 15.791 0.505172 16.9865 1.11532 18.0477C1.72547 19.1089 2.69334 19.9863 3.89195 20.5647C5.09056 21.1432 6.46393 21.3956 7.83188 21.289L16.6881 59.4765C17.075 61.1386 18.1167 62.6341 19.6366 63.7092C21.1565 64.7844 23.0609 65.3729 25.0266 65.375H77.9598C79.9288 65.3754 81.8372 64.7872 83.36 63.7107C84.8828 62.6342 85.9259 61.1358 86.3119 59.4707L95.1681 21.289C95.368 21.3047 95.5701 21.3125 95.7744 21.3125C97.173 21.3118 98.5374 20.9399 99.6824 20.2472C100.827 19.5546 101.697 18.5749 102.174 17.4411C102.651 16.3073 102.712 15.0743 102.348 13.9097C101.985 12.7451 101.214 11.7053 100.141 10.9314C99.0687 10.1575 97.7458 9.68707 96.3524 9.58402C94.9589 9.48097 93.5624 9.75027 92.3526 10.3554C91.1427 10.9604 90.1782 11.872 89.5899 12.9662C89.0015 14.0604 88.818 15.2842 89.0641 16.4715L71.9648 23.4275C71.2694 23.7099 70.4837 23.7811 69.7354 23.6297C68.9872 23.4782 68.3203 23.113 67.8432 22.5933ZM51.5 47.75C49.6932 47.75 47.9604 47.1311 46.6828 46.0293C45.4053 44.9275 44.6875 43.4332 44.6875 41.875C44.6875 40.3169 45.4053 38.8226 46.6828 37.7208C47.9604 36.619 49.6932 36 51.5 36C53.3068 36 55.0396 36.619 56.3172 37.7208C57.5948 38.8226 58.3125 40.3169 58.3125 41.875C58.3125 43.4332 57.5948 44.9275 56.3172 46.0293C55.0396 47.1311 53.3068 47.75 51.5 47.75Z" fill="#EBFF00"/>
</svg>
