<!-- <svg width="50" height="43" viewBox="0 0 50 43" fill="none" xmlns="http://www.w3.org/2000/svg">
<path d="M20 43V28H30V43H42.5V23H50L25 0.5L0 23H7.5V43H20Z" fill="black"/>
</svg> -->
<svg width="120" height="120" viewBox="0 0 120 120" fill="none" xmlns="http://www.w3.org/2000/svg">
<g clip-path="url(#clip0_57_4)">
<g filter="url(#filter0_d_57_4)">
<path d="M1.33936 59.6228C1.33936 62.0335 3.2465 63.4907 5.60793 63.4907C7.06507 63.4907 8.22007 62.7878 9.22507 61.7828L58.2429 17.1343C58.7936 16.5814 59.3979 16.38 60.0494 16.38C60.6536 16.38 61.2065 16.5814 61.8065 17.1343L110.775 61.7828C111.829 62.7878 112.984 63.4907 114.392 63.4907C116.751 63.4907 118.661 62.0335 118.661 59.6228C118.661 58.1164 118.108 57.1628 117.154 56.3078L99.7758 40.4893V10.8064C99.7758 8.59712 98.3701 7.19141 96.1608 7.19141H89.5822C87.4222 7.19141 85.9158 8.59712 85.9158 10.8064V27.8828L66.0258 9.70069C64.2686 8.04426 62.1086 7.24284 60.0001 7.24284C57.8894 7.24284 55.7808 8.04641 53.9722 9.70283L2.84578 56.3078C1.9415 57.1628 1.33936 58.1164 1.33936 59.6228ZM15.7029 101.76C15.7029 108.741 19.9222 112.811 27.0022 112.811H93.0451C100.127 112.811 104.295 108.741 104.295 101.76V64.9971L61.6565 26.5757C61.1036 26.0743 60.5015 25.8235 59.8994 25.8235C59.3465 25.8235 58.7936 26.0743 58.1915 26.6271L15.7029 65.2478V101.76ZM70.9479 66.6557L59.4965 69.4157C58.4422 69.6686 57.9901 70.1207 57.9901 71.9271V88.7528C57.9901 95.7835 53.3186 100.806 46.3394 100.806C41.4686 100.806 38.3036 97.7936 38.3036 93.6236C38.3036 88.8536 42.0194 86.2414 46.4894 85.0864L50.9594 83.8821C53.4215 83.2778 53.6208 82.8257 53.6208 80.6164V58.6178C53.6208 55.7571 54.1736 55.2535 56.5844 54.6514L70.7979 51.1371C73.3586 50.4835 74.0122 51.2871 74.0122 53.1943V62.7364C74.0122 65.55 73.3094 66.1028 70.9479 66.6557Z" fill="#88D8B0"/>
</g>
</g>
<defs>
<filter id="filter0_d_57_4" x="-2.66064" y="7.19141" width="125.322" height="113.619" filterUnits="userSpaceOnUse" color-interpolation-filters="sRGB">
<feFlood flood-opacity="0" result="BackgroundImageFix"/>
<feColorMatrix in="SourceAlpha" type="matrix" values="0 0 0 0 0 0 0 0 0 0 0 0 0 0 0 0 0 0 127 0" result="hardAlpha"/>
<feOffset dy="4"/>
<feGaussianBlur stdDeviation="2"/>
<feComposite in2="hardAlpha" operator="out"/>
<feColorMatrix type="matrix" values="0 0 0 0 0.207843 0 0 0 0 0.219608 0 0 0 0 0.223529 0 0 0 0.75 0"/>
<feBlend mode="normal" in2="BackgroundImageFix" result="effect1_dropShadow_57_4"/>
<feBlend mode="normal" in="SourceGraphic" in2="effect1_dropShadow_57_4" result="shape"/>
</filter>
<clipPath id="clip0_57_4">
<rect width="120" height="120" fill="white"/>
</clipPath>
</defs>
</svg>
