<svg width="60" height="60" viewBox="0 0 60 60" fill="none" xmlns="http://www.w3.org/2000/svg">
<g clip-path="url(#clip0_12_41)">
<g filter="url(#filter0_d_12_41)">
<path d="M38.9963 21.4425L32.8463 13.695C33.3139 13.1507 33.6155 12.4837 33.7154 11.7732C33.8152 11.0626 33.7092 10.3383 33.4097 9.68624C33.1103 9.03416 32.63 8.48169 32.026 8.09439C31.4219 7.70709 30.7194 7.50122 30.0019 7.50122C29.2843 7.50122 28.5818 7.70709 27.9778 8.09439C27.3737 8.48169 26.8935 9.03416 26.594 9.68624C26.2946 10.3383 26.1885 11.0626 26.2884 11.7732C26.3883 12.4837 26.6899 13.1507 27.1575 13.695L21.0075 21.4425C20.7447 21.7751 20.3769 22.0088 19.9642 22.1055C19.5515 22.2022 19.1182 22.1562 18.735 21.975L9.31875 17.535C9.35625 17.32 9.375 17.1 9.375 16.875C9.37496 16.1189 9.14637 15.3805 8.71924 14.7567C8.2921 14.1328 7.68637 13.6526 6.9815 13.3792C6.27663 13.1057 5.50555 13.0516 4.76942 13.2241C4.0333 13.3966 3.3665 13.7876 2.85653 14.3458C2.34655 14.904 2.0172 15.6033 1.91169 16.3519C1.80619 17.1006 1.92945 17.8637 2.26531 18.541C2.60118 19.2184 3.13395 19.7784 3.79373 20.1477C4.45352 20.5169 5.2095 20.678 5.9625 20.61L10.8375 44.985C11.0505 46.0459 11.6239 47.0005 12.4605 47.6867C13.2971 48.373 14.3454 48.7486 15.4275 48.75H44.565C45.6489 48.7502 46.6994 48.3748 47.5376 47.6876C48.3758 47.0005 48.9501 46.0441 49.1625 44.9812L54.0375 20.61C54.1475 20.62 54.2588 20.625 54.3713 20.625C55.1411 20.6245 55.8922 20.3871 56.5224 19.945C57.1527 19.5029 57.6316 18.8776 57.8942 18.1539C58.1567 17.4301 58.1901 16.6432 57.9899 15.8998C57.7897 15.1564 57.3656 14.4927 56.7751 13.9987C56.1846 13.5047 55.4564 13.2045 54.6894 13.1387C53.9223 13.0729 53.1536 13.2448 52.4877 13.6311C51.8217 14.0173 51.2907 14.5991 50.9669 15.2975C50.643 15.996 50.542 16.7772 50.6775 17.535L41.265 21.975C40.8822 22.1552 40.4497 22.2007 40.0379 22.104C39.626 22.0073 39.2589 21.7742 38.9963 21.4425ZM30 37.5C29.0054 37.5 28.0516 37.1049 27.3484 36.4016C26.6451 35.6984 26.25 34.7446 26.25 33.75C26.25 32.7554 26.6451 31.8016 27.3484 31.0983C28.0516 30.3951 29.0054 30 30 30C30.9946 30 31.9484 30.3951 32.6517 31.0983C33.3549 31.8016 33.75 32.7554 33.75 33.75C33.75 34.7446 33.3549 35.6984 32.6517 36.4016C31.9484 37.1049 30.9946 37.5 30 37.5Z" fill="#FFEEAD"/>
</g>
</g>
<defs>
<filter id="filter0_d_12_41" x="-2.125" y="7.50122" width="64.2439" height="49.2488" filterUnits="userSpaceOnUse" color-interpolation-filters="sRGB">
<feFlood flood-opacity="0" result="BackgroundImageFix"/>
<feColorMatrix in="SourceAlpha" type="matrix" values="0 0 0 0 0 0 0 0 0 0 0 0 0 0 0 0 0 0 127 0" result="hardAlpha"/>
<feOffset dy="4"/>
<feGaussianBlur stdDeviation="2"/>
<feComposite in2="hardAlpha" operator="out"/>
<feColorMatrix type="matrix" values="0 0 0 0 0.207843 0 0 0 0 0.219608 0 0 0 0 0.223529 0 0 0 0.25 0"/>
<feBlend mode="normal" in2="BackgroundImageFix" result="effect1_dropShadow_12_41"/>
<feBlend mode="normal" in="SourceGraphic" in2="effect1_dropShadow_12_41" result="shape"/>
</filter>
<clipPath id="clip0_12_41">
<rect width="60" height="60" fill="white"/>
</clipPath>
</defs>
</svg>
